<svg width="1024" height="429" xmlns="http://www.w3.org/2000/svg">

 <title/>
 <g>
  <title>background</title>
  <rect fill="none" id="canvas_background" height="431" width="1026" y="-1" x="-1"/>
 </g>
 <g>
  <title>Layer 1</title>
  <circle stroke-linejoin="round" stroke-linecap="round" stroke="#45413c" fill="#b89558" r="6.499969" id="_Ellipse_" cy="208.37613" cx="301.152302" class="cls-1"/>
  <circle fill="#ffb0ca" stroke-linejoin="round" stroke-linecap="round" stroke="#45413c" r="3.999969" id="_Ellipse_2" cy="208.37613" cx="301.152302" class="cls-2"/>
  <circle stroke-linejoin="round" stroke-linecap="round" stroke="#45413c" fill="#b89558" r="6.5" id="_Ellipse_3" cy="208.37613" cx="275.152302" class="cls-1"/>
  <circle fill="#ffb0ca" stroke-linejoin="round" stroke-linecap="round" stroke="#45413c" r="4" id="_Ellipse_4" cy="208.37613" cx="275.152302" class="cls-2"/>
  <path fill="#b89558" id="_Path_" d="m302.652344,212.776123l0,-6.899994a14.5,14.5 0 0 0 -29.000031,0l0,6.899994c-2.809998,1.920013 -4.5,4.390015 -4.5,7.100006c0,6.080002 8.5,11 19,11s18.999969,-4.919998 18.999969,-11c0,-2.709991 -1.699951,-5.179993 -4.499939,-7.100006z" class="cls-3"/>
  <path fill="#f7e5c6" id="_Path_2" d="m298.422302,229.116135a13.44,13.44 0 0 0 0.730042,-16.550003l0,-8.690002a5.5,5.5 0 0 0 -11.000031,0a5.5,5.5 0 0 0 -11,0l0,8.690002a13.46,13.46 0 0 0 0.720001,16.550003a29.549999,29.549999 0 0 0 10.279999,1.759995a29.540001,29.540001 0 0 0 10.269989,-1.759995z" class="cls-4"/>
  <path fill="#debb7e" id="_Path_3" d="m288.152313,194.876129a14.5,14.5 0 0 1 14.500031,14.5l0,-3.5a14.5,14.5 0 0 0 -29.000031,0l0,3.5a14.5,14.5 0 0 1 14.5,-14.5z" class="cls-5"/>
  <path fill="none" stroke-linejoin="round" stroke-linecap="round" stroke="#45413c" id="_Path_4" d="m302.652344,212.776123l0,-6.899994a14.5,14.5 0 0 0 -29.000031,0l0,6.899994c-2.809998,1.920013 -4.5,4.390015 -4.5,7.100006c0,6.080002 8.5,11 19,11s18.999969,-4.919998 18.999969,-11c0,-2.709991 -1.699951,-5.179993 -4.499939,-7.100006z" class="cls-6"/>
  <ellipse opacity="0.15" fill="#45413c" ry="1.5" rx="16" id="_Ellipse_5" cy="235.37613" cx="288.152302" class="cls-7"/>
  <path fill="none" stroke-linejoin="round" stroke-linecap="round" stroke="#45413c" id="_Path_5" d="m298.422302,229.116135a13.44,13.44 0 0 0 0.730042,-16.550003l0,-8.690002a5.5,5.5 0 0 0 -11.000031,0a5.5,5.5 0 0 0 -11,0l0,8.690002a13.46,13.46 0 0 0 0.720001,16.550003a29.549999,29.549999 0 0 0 10.279999,1.759995a29.540001,29.540001 0 0 0 10.269989,-1.759995z" class="cls-6"/>
  <path stroke-miterlimit="10" fill="#947746" stroke="#45413c" id="_Path_6" d="m291.832306,217.026123c0,1 -1.649994,2.559998 -3.679993,2.559998s-3.690002,-1.559998 -3.690002,-2.559998s1.690002,-1.819992 3.690002,-1.819992s3.679993,0.809998 3.679993,1.819992z" class="cls-8"/>
  <path fill="#ff866e" stroke-miterlimit="10" stroke="#45413c" id="_Path_7" d="m294.652313,224.426132c0,0.729996 -2.920013,2.580002 -6.5,2.580002s-6.5,-1.850006 -6.5,-2.580002s2.910004,-0.340012 6.5,-0.340012s6.5,-0.399994 6.5,0.340012z" class="cls-9"/>
  <path fill="#fff5e3" stroke-linejoin="round" stroke-linecap="round" stroke="#45413c" id="_Path_8" d="m304.152283,210.746124l-1.549927,3.580002l5.309937,8.229996a4.7,4.7 0 0 1 -7.909973,5.090012l-4.460022,-7c-3.609985,-2.199997 -6.099976,-6.169998 -8.429993,-10.680008a1.32,1.32 0 0 1 2,-1.649994l4,3.910004l-3.5,-5.350006a1.52,1.52 0 1 1 2.540009,-1.660004l3.490021,5.410004l-2.740021,-6.649994a1.6,1.6 0 0 1 2.880035,-1.380005l4.369995,7.880005l0.809998,-1.380005a1.81,1.81 0 0 1 3.189941,1.649994z" class="cls-10"/>
  <path fill="#debb7e" stroke-linejoin="round" stroke-linecap="round" stroke="#45413c" id="_Path_9" d="m296.082336,221.586121l3.690002,0.800003l0,-3.529999l3.569946,1.320007l0.809998,-3.479996l3.780029,5.859985a4.7,4.7 0 0 1 -7.890015,5.100006l-3.959961,-6.070007z" class="cls-11"/>
  <path fill="#fff5e3" stroke-linejoin="round" stroke-linecap="round" stroke="#45413c" id="_Path_10" d="m272.152313,210.746124l1.549988,3.580002l-5.309998,8.229996a4.7,4.7 0 1 0 7.910004,5.090012l4.460022,-7c3.609985,-2.199997 6.099976,-6.169998 8.429993,-10.680008a1.32,1.32 0 0 0 -2,-1.649994l-4.040009,3.959991l3.540009,-5.399994a1.55,1.55 0 0 0 -0.170013,-1.869995a1.53,1.53 0 0 0 -2.399994,0.220001l-3.48999,5.409988l2.759979,-6.649994a1.6,1.6 0 0 0 -2.879974,-1.380005l-4.360016,7.87001l-0.809998,-1.380005a1.81,1.81 0 0 0 -3.190002,1.649994z" class="cls-10"/>
  <path fill="#debb7e" stroke-linejoin="round" stroke-linecap="round" stroke="#45413c" id="_Path_11" d="m280.212311,221.586121l-3.690002,0.800003l0,-3.529999l-3.589996,1.320007l-0.779999,-3.479996l-3.76001,5.859985a4.7,4.7 0 0 0 7.890015,5.100006l3.929993,-6.070007z" class="cls-11"/>
  <ellipse ry="0.275281" rx="0.275281" id="svg_2" cy="154.764083" cx="1137.437758" stroke-width="1.5" stroke="#000" fill="#fff"/>
  <text style="cursor: move;" font-weight="bold" font-style="normal" xml:space="preserve" text-anchor="start" font-family="Junction, sans-serif" font-size="36" id="svg_5" y="228.205783" x="340.677654" stroke-opacity="null" stroke-width="0" stroke="#45413c" fill="#e5e5e5">No Image Available!</text>
 </g>
</svg>